<?xml version="1.0" encoding="UTF-8"?>
<svg width="16px" height="16px" viewBox="0 0 16 16" version="1.1" xmlns="http://www.w3.org/2000/svg" xmlns:xlink="http://www.w3.org/1999/xlink">
    <title>safe-fill备份</title>
    <g id="页面-1" stroke="none" stroke-width="1" fill="none" fill-rule="evenodd">
        <g id="无国家索引的方案备份" transform="translate(-20.000000, -1016.000000)">
            <g id="safe-fill备份" transform="translate(20.000000, 1016.000000)">
                <polygon id="路径" fill="#D8D8D8" opacity="0" points="0 0 16 0 16 16 0 16"></polygon>
                <path d="M9.45773521,5.46666667 L6.57773521,5.46666667 L6.09773521,5.46666667 L5.85773521,5.46666667 C5.72518687,5.46666667 5.61773521,5.34025295 5.61773521,5.18431373 L5.61773521,0.949019608 C5.61773521,0.793080384 5.72518687,0.666666667 5.85773521,0.666666667 L10.1777352,0.666666667 C10.3102835,0.666666667 10.4177352,0.793080384 10.4177352,0.949019608 L10.4177352,5.18431373 C10.4177352,5.34025295 10.3102835,5.46666667 10.1777352,5.46666667 L9.93773521,5.46666667 L9.45773521,5.46666667 Z M4.84,15.4666667 L1.96,15.4666667 L1.48,15.4666667 L1.24,15.4666667 C1.10745166,15.4666667 1,15.3402529 1,15.1843137 L1,10.9490196 C1,10.7930804 1.10745166,10.6666667 1.24,10.6666667 L5.56,10.6666667 C5.69254834,10.6666667 5.8,10.7930804 5.8,10.9490196 L5.8,15.1843137 C5.8,15.3402529 5.69254834,15.4666667 5.56,15.4666667 L5.32,15.4666667 L4.84,15.4666667 Z M14.1381871,15.43979 L11.2581871,15.43979 L10.7781871,15.43979 L10.5381871,15.43979 C10.4056388,15.43979 10.2981871,15.3133762 10.2981871,15.157437 L10.2981871,10.9221429 C10.2981871,10.7662037 10.4056388,10.63979 10.5381871,10.63979 L14.8581871,10.63979 C14.9907355,10.63979 15.0981871,10.7662037 15.0981871,10.9221429 L15.0981871,15.157437 C15.0981871,15.3133762 14.9907355,15.43979 14.8581871,15.43979 L14.6181871,15.43979 L14.1381871,15.43979 Z" id="形状" fill="#BECCDA" fill-rule="nonzero"></path>
                <line x1="8" y1="4.78625452" x2="8" y2="7.07594126" id="路径-10" fill-rule="nonzero"></line>
                <line x1="8" y1="5" x2="8" y2="7.5" id="路径-11" stroke="#BECCDA"></line>
                <path d="M3.4,10.6666667 L3.4,8.99711365 C3.4,8.44595738 3.84595552,7.99871095 4.39710948,7.99711782 L11.6952966,7.97602219 C12.247579,7.9744258 12.6965866,8.42084505 12.6981829,8.97312749 C12.6981857,8.97409099 12.6981871,8.9750545 12.6981871,8.97601801 L12.6981871,10.63979 L12.6981871,10.63979" id="路径-12" stroke="#BECCDA"></path>
            </g>
        </g>
    </g>
</svg>