<?xml version="1.0" encoding="UTF-8"?>
<svg width="16px" height="16px" viewBox="0 0 16 16" version="1.1" xmlns="http://www.w3.org/2000/svg" xmlns:xlink="http://www.w3.org/1999/xlink">
    <title>list-settings-fill</title>
    <g id="页面-1" stroke="none" stroke-width="1" fill="none" fill-rule="evenodd">
        <g id="无国家索引的方案备份" transform="translate(-20.000000, -1240.000000)">
            <g id="list-settings-fill" transform="translate(20.000000, 1240.000000)">
                <polygon id="路径" points="0 0 16 0 16 16 0 16"></polygon>
                <path d="M1.33333333,12 L6,12 L6,13.3333333 L1.33333333,13.3333333 L1.33333333,12 Z M1.33333333,7.33333333 L7.33333333,7.33333333 L7.33333333,8.66666667 L1.33333333,8.66666667 L1.33333333,7.33333333 Z M1.33333333,2.66666667 L14.6666667,2.66666667 L14.6666667,4 L1.33333333,4 L1.33333333,2.66666667 Z M13.7826667,8.68333333 L14.5533333,8.42266667 L15.22,9.57733333 L14.6093333,10.114 C14.6861976,10.4784356 14.6861976,10.8548977 14.6093333,11.2193333 L15.22,11.756 L14.5533333,12.9106667 L13.7826667,12.65 C13.5093333,12.8966667 13.184,13.0866667 12.826,13.2033333 L12.6666667,14 L11.3333333,14 L11.1733333,13.2026667 C10.8195079,13.0870386 10.4938417,12.8985429 10.2173333,12.6493333 L9.44666667,12.9106667 L8.78,11.756 L9.39066667,11.2193333 C9.3138024,10.8548977 9.3138024,10.4784356 9.39066667,10.114 L8.78,9.57733333 L9.44666667,8.42266667 L10.2173333,8.68333333 C10.4906667,8.43666667 10.816,8.24666667 11.174,8.13 L11.3333333,7.33333333 L12.6666667,7.33333333 L12.8266667,8.13066667 C13.184,8.24666667 13.5093333,8.43733333 13.7826667,8.684 L13.7826667,8.68333333 Z M12,11.3333333 C12.3681898,11.3333333 12.6666667,11.0348565 12.6666667,10.6666667 C12.6666667,10.2984768 12.3681898,10 12,10 C11.6318102,10 11.3333333,10.2984768 11.3333333,10.6666667 C11.3333333,11.0348565 11.6318102,11.3333333 12,11.3333333 Z" id="形状" fill="#BECCDA" fill-rule="nonzero"></path>
            </g>
        </g>
    </g>
</svg>