<?xml version="1.0" encoding="UTF-8"?>
<svg width="16px" height="16px" viewBox="0 0 16 16" version="1.1" xmlns="http://www.w3.org/2000/svg" xmlns:xlink="http://www.w3.org/1999/xlink">
    <title>book-2-fill</title>
    <g id="页面-1" stroke="none" stroke-width="1" fill="none" fill-rule="evenodd">
        <g id="无国家索引的方案备份" transform="translate(-20.000000, -1128.000000)">
            <g id="book-2-fill" transform="translate(20.000000, 1128.000000)">
                <polygon id="路径" points="0 0 16 0 16 16 0 16"></polygon>
                <path d="M14,12 L4,12 C3.63181017,12 3.33333333,12.2984768 3.33333333,12.6666667 C3.33333333,13.0348565 3.63181017,13.3333333 4,13.3333333 L14,13.3333333 L14,14.6666667 L4,14.6666667 C2.8954305,14.6666667 2,13.7712362 2,12.6666667 L2,2.66666667 C2,1.930287 2.59695367,1.33333333 3.33333333,1.33333333 L14,1.33333333 L14,12 Z M10.6666667,6 L10.6666667,4.66666667 L5.33333333,4.66666667 L5.33333333,6 L10.6666667,6 Z" id="形状" fill="#BECCDA" fill-rule="nonzero"></path>
            </g>
        </g>
    </g>
</svg>