<?xml version="1.0" encoding="UTF-8"?>
<svg width="16px" height="16px" viewBox="0 0 16 16" version="1.1" xmlns="http://www.w3.org/2000/svg" xmlns:xlink="http://www.w3.org/1999/xlink">
    <title>dashboard-3-fill</title>
    <g id="页面-1" stroke="none" stroke-width="1" fill="none" fill-rule="evenodd">
        <g id="无国家索引的方案备份" transform="translate(-20.000000, -58.000000)">
            <g id="dashboard-3-fill" transform="translate(20.000000, 58.000000)">
                <polygon id="路径" points="0 0 16 0 16 16 0 16"></polygon>
                <path d="M8,1.33333333 C11.682,1.33333333 14.6666667,4.318 14.6666667,8 C14.6666667,11.682 11.682,14.6666667 8,14.6666667 C4.318,14.6666667 1.33333333,11.682 1.33333333,8 C1.33333333,4.318 4.318,1.33333333 8,1.33333333 Z M11.064,4.936 C10.928,4.79933333 10.7133333,4.78066667 10.5553333,4.89133333 C8.62866667,6.24333333 7.542,7.04466667 7.29266667,7.29266667 C6.90266667,7.68333333 6.90266667,8.31666667 7.29266667,8.70733333 C7.68333333,9.09733333 8.31666667,9.09733333 8.70733333,8.70733333 C8.85333333,8.56066667 9.65266667,7.47333333 11.106,5.44266667 C11.218,5.28666667 11.2,5.072 11.064,4.936 Z M11.6666667,7.33333333 C11.2986667,7.33333333 11,7.632 11,8 C11,8.368 11.2986667,8.66666667 11.6666667,8.66666667 C12.0346667,8.66666667 12.3333333,8.368 12.3333333,8 C12.3333333,7.632 12.0346667,7.33333333 11.6666667,7.33333333 Z M4.33333333,7.33333333 C3.96533333,7.33333333 3.66666667,7.632 3.66666667,8 C3.66666667,8.368 3.96533333,8.66666667 4.33333333,8.66666667 C4.70133333,8.66666667 5,8.368 5,8 C5,7.632 4.70133333,7.33333333 4.33333333,7.33333333 Z M5.87866667,4.936 C5.61866667,4.676 5.196,4.676 4.936,4.936 C4.676,5.196 4.676,5.618 4.936,5.87866667 C5.196,6.13866667 5.618,6.13866667 5.87866667,5.87866667 C6.13866667,5.61866667 6.13866667,5.196 5.87866667,4.936 Z M8,3.66666667 C7.632,3.66666667 7.33333333,3.96533333 7.33333333,4.33333333 C7.33333333,4.70133333 7.632,5 8,5 C8.368,5 8.66666667,4.70133333 8.66666667,4.33333333 C8.66666667,3.96533333 8.368,3.66666667 8,3.66666667 Z" id="形状" fill="#BECCDA" fill-rule="nonzero"></path>
            </g>
        </g>
    </g>
</svg>