<?xml version="1.0" encoding="UTF-8"?>
<svg width="16px" height="16px" viewBox="0 0 16 16" version="1.1" xmlns="http://www.w3.org/2000/svg" xmlns:xlink="http://www.w3.org/1999/xlink">
    <title>mail-settings-fill</title>
    <g id="页面-1" stroke="none" stroke-width="1" fill="none" fill-rule="evenodd">
        <g id="无国家索引的方案备份" transform="translate(-21.000000, -394.000000)">
            <g id="mail-settings-fill" transform="translate(21.000000, 394.000000)">
                <polygon id="路径" points="0 0 16 0 16 16 0 16"></polygon>
                <path d="M14.6666667,8.894 C13.2131275,8.37913601 11.5930731,8.74564466 10.5026922,9.83602554 C9.41231132,10.9264064 9.04580267,12.5464609 9.56066667,14 L2,14 C1.63181017,14 1.33333333,13.7015232 1.33333333,13.3333333 L1.33333333,2.66666667 C1.33333333,2.29847683 1.63181017,2 2,2 L14,2 C14.3681898,2 14.6666667,2.29847683 14.6666667,2.66666667 L14.6666667,8.894 Z M8.04,7.78866667 L3.76533333,4.15866667 L2.902,5.17466667 L8.04866667,9.54466667 L13.1026667,5.17133333 L12.2306667,4.16266667 L8.04066667,7.78866667 L8.04,7.78866667 Z M11.3666667,13.032 C11.3220568,12.7904871 11.3220568,12.5428462 11.3666667,12.3013333 L10.6906667,11.9106667 L11.3573333,10.756 L12.0333333,11.1466667 C12.2186667,10.988 12.4326667,10.8633333 12.6666667,10.78 L12.6666667,10 L14,10 L14,10.78 C14.234,10.8633333 14.448,10.988 14.6333333,11.1466667 L15.3093333,10.756 L15.976,11.9106667 L15.3,12.3013333 C15.3446098,12.5428462 15.3446098,12.7904871 15.3,13.032 L15.976,13.4226667 L15.3093333,14.5773333 L14.6333333,14.1866667 C14.446597,14.3468386 14.231885,14.4711455 14,14.5533333 L14,15.3333333 L12.6666667,15.3333333 L12.6666667,14.5533333 C12.4347817,14.4711455 12.2200697,14.3468386 12.0333333,14.1866667 L11.3573333,14.5773333 L10.6906667,13.4226667 L11.3666667,13.032 L11.3666667,13.032 Z M13.3333333,13.3333333 C13.7015232,13.3333333 14,13.0348565 14,12.6666667 C14,12.2984768 13.7015232,12 13.3333333,12 C12.9651435,12 12.6666667,12.2984768 12.6666667,12.6666667 C12.6666667,13.0348565 12.9651435,13.3333333 13.3333333,13.3333333 Z" id="形状" fill="#BECCDA" fill-rule="nonzero"></path>
            </g>
        </g>
    </g>
</svg>