<?xml version="1.0" encoding="UTF-8"?>
<svg width="16px" height="16px" viewBox="0 0 16 16" version="1.1" xmlns="http://www.w3.org/2000/svg" xmlns:xlink="http://www.w3.org/1999/xlink">
    <title>folder-shared-fill 2</title>
    <g id="页面-1" stroke="none" stroke-width="1" fill="none" fill-rule="evenodd">
        <g id="无国家索引的方案备份" transform="translate(-21.000000, -226.000000)">
            <g id="folder-shared-fill-2" transform="translate(21.000000, 226.000000)">
                <polygon id="路径" points="0 0 16 0 16 16 0 16"></polygon>
                <path d="M14.6666667,5.38207961 L14.6666667,8.75066667 C13.1359664,7.65036726 11.0447926,7.76814912 9.64732646,9.03337261 C8.24986028,10.2985961 7.92545253,12.3678084 8.86866667,14 L2,14 C1.63181017,14 1.33333333,13.7015232 1.33333333,13.3333333 L1.33333333,5.38207961 L14.6666667,5.38207961 Z M1.33333333,2.66666667 C1.33333333,2.29847683 1.63181017,2 2,2 L14,2 C14.3681898,2 14.6666667,2.29847683 14.6666667,2.66666667 L14.6666667,4.13763517 L1.33333333,4.13763517 L1.33333333,2.66666667 Z M12,11.3333333 L12,9 L15.3333333,12 L12,15 L12,12.6666667 L10,12.6666667 L10,11.3333333 L12,11.3333333 Z" id="形状" fill="#BECCDA" fill-rule="nonzero"></path>
            </g>
        </g>
    </g>
</svg>