<?xml version="1.0" encoding="UTF-8"?>
<svg width="16px" height="16px" viewBox="0 0 16 16" version="1.1" xmlns="http://www.w3.org/2000/svg" xmlns:xlink="http://www.w3.org/1999/xlink">
    <title>checkbox-multiple-fill</title>
    <g id="页面-1" stroke="none" stroke-width="1" fill="none" fill-rule="evenodd">
        <g id="无国家索引的方案备份" transform="translate(-20.000000, -450.000000)">
            <g id="checkbox-multiple-fill" transform="translate(20.000000, 450.000000)">
                <polygon id="路径" points="0 0 16 0 16 16 0 16"></polygon>
                <path d="M4.66666667,4.66666667 L4.66666667,2 C4.66666667,1.63181017 4.9651435,1.33333333 5.333333,1.33333333 L14,1.33333333 C14.3681898,1.33333333 14.6666667,1.63181017 14.6666667,2 L14.6666667,10.6666667 C14.6666667,11.0348565 14.3681898,11.3333333 14,11.3333333 L11.333333,11.3333333 L11.333333,13.9953333 C11.333333,14.366 11.034,14.666667 10.662,14.666667 L2.00466667,14.666667 C1.82656375,14.6668438 1.65570456,14.5961711 1.52976672,14.4702333 C1.40382888,14.3442954 1.3331562,14.1734362 1.333333,13.9953333 L1.33533333,5.338 C1.33533333,4.96733333 1.63466667,4.66666667 2.00666667,4.66666667 L4.66666667,4.66666667 Z M6,4.66666667 L10.662,4.66666667 C11.0326667,4.66666667 11.3333333,4.966 11.3333333,5.338 L11.3333333,10 L13.3333333,10 L13.3333333,2.66666667 L6,2.66666667 L6,4.66666667 Z M5.66866667,12 L9.43933333,8.22866667 L8.49666667,7.286 L5.66866667,10.1146667 L4.25333333,8.7 L3.31066667,9.64266667 L5.66866667,12 Z" id="形状" fill="#BECCDA" fill-rule="nonzero"></path>
            </g>
        </g>
    </g>
</svg>