<?xml version="1.0" encoding="UTF-8"?>
<svg width="16px" height="16px" viewBox="0 0 16 16" version="1.1" xmlns="http://www.w3.org/2000/svg" xmlns:xlink="http://www.w3.org/1999/xlink">
    <title>safe-fill</title>
    <g id="页面-1" stroke="none" stroke-width="1" fill="none" fill-rule="evenodd">
        <g id="无国家索引的方案备份" transform="translate(-20.000000, -960.000000)">
            <g id="safe-fill" transform="translate(20.000000, 960.000000)">
                <polygon id="路径" points="0 0 16 0 16 16 0 16"></polygon>
                <path d="M12,13.3333333 L4,13.3333333 L4,14.6666667 L2.66666667,14.6666667 L2.66666667,13.3333333 L2,13.3333333 C1.63181017,13.3333333 1.33333333,13.0348565 1.33333333,12.6666667 L1.33333333,2.66666667 C1.33333333,2.29847683 1.63181017,2 2,2 L14,2 C14.3681898,2 14.6666667,2.29847683 14.6666667,2.66666667 L14.6666667,12.6666667 C14.6666667,13.0348565 14.3681898,13.3333333 14,13.3333333 L13.3333333,13.3333333 L13.3333333,14.6666667 L12,14.6666667 L12,13.3333333 Z M7.33333333,9.24933333 L7.33333333,11.3333333 L8.66666667,11.3333333 L8.66666667,9.24933333 C9.96369495,8.91044737 10.8078528,7.6617392 10.6389567,6.33185191 C10.4700607,5.00196462 9.3405636,4.00391113 8,3.99999868 C6.65613491,3.9986718 5.5212578,4.99753915 5.35194647,6.33069661 C5.18263513,7.66385407 6.0317987,8.9146951 7.33333333,9.24933333 L7.33333333,9.24933333 Z M8,8 C7.26362033,8 6.66666667,7.40304633 6.66666667,6.66666667 C6.66666667,5.930287 7.26362033,5.33333333 8,5.33333333 C8.73637967,5.33333333 9.33333333,5.930287 9.33333333,6.66666667 C9.33333333,7.40304633 8.73637967,8 8,8 Z" id="形状" fill="#BECCDA" fill-rule="nonzero"></path>
            </g>
        </g>
    </g>
</svg>