<?xml version="1.0" encoding="UTF-8"?>
<svg width="16px" height="16px" viewBox="0 0 16 16" version="1.1" xmlns="http://www.w3.org/2000/svg" xmlns:xlink="http://www.w3.org/1999/xlink">
    <title>database-2-fill</title>
    <g id="页面-1" stroke="none" stroke-width="1" fill="none" fill-rule="evenodd">
        <g id="无国家索引的方案备份" transform="translate(-21.000000, -170.000000)">
            <g id="database-2-fill" transform="translate(21.000000, 170.000000)">
                <polygon id="路径" points="0 0 16 0 16 16 0 16"></polygon>
                <path d="M14,6.33333333 L14,8.33333333 C14,9.99 11.3133333,11.3333333 8,11.3333333 C4.68666667,11.3333333 2,9.99 2,8.33333333 L2,6.33333333 C2,7.99 4.68666667,9.33333333 8,9.33333333 C11.3133333,9.33333333 14,7.99 14,6.33333333 Z M2,9.66666667 C2,11.3233333 4.68666667,12.6666667 8,12.6666667 C11.3133333,12.6666667 14,11.3233333 14,9.66666667 L14,11.6666667 C14,13.3233333 11.3133333,14.6666667 8,14.6666667 C4.68666667,14.6666667 2,13.3233333 2,11.6666667 L2,9.66666667 Z M8,8 C4.68666667,8 2,6.65666667 2,5 C2,3.34333333 4.68666667,2 8,2 C11.3133333,2 14,3.34333333 14,5 C14,6.65666667 11.3133333,8 8,8 Z" id="形状" fill="#BECCDA" fill-rule="nonzero"></path>
            </g>
        </g>
    </g>
</svg>