<?xml version="1.0" encoding="UTF-8"?>
<svg width="16px" height="16px" viewBox="0 0 16 16" version="1.1" xmlns="http://www.w3.org/2000/svg" xmlns:xlink="http://www.w3.org/1999/xlink">
    <title>bookmark-3-fill</title>
    <g id="页面-1" stroke="none" stroke-width="1" fill="none" fill-rule="evenodd">
        <g id="无国家索引的方案备份" transform="translate(-21.000000, -282.000000)">
            <g id="bookmark-3-fill" transform="translate(21.000000, 282.000000)">
                <polygon id="路径" points="0 0 16 0 16 16 0 16"></polygon>
                <path d="M2.66666667,1.33333333 L13.3333333,1.33333333 C13.7015232,1.33333333 14,1.63181017 14,2 L14,14.8506667 C14,14.9636832 13.942957,15.0690602 13.8481621,15.1305961 C13.7533671,15.1921321 13.6338487,15.2014442 13.5306667,15.1553333 L8,12.6866667 L2.46933333,15.1546667 C2.36625926,15.2007292 2.24687475,15.1914876 2.15211761,15.1301108 C2.05736047,15.068734 2,14.9635649 2,14.8506667 L2,2 C2,1.63181017 2.29847683,1.33333333 2.66666667,1.33333333 Z M8,9 L9.95933333,10.03 L9.58533333,7.84866667 L11.17,6.30333333 L8.97933333,5.98466667 L8,4 L7.02,5.98466667 L4.83,6.30333333 L6.41466667,7.84866667 L6.04133333,10.03 L8,9 Z" id="形状" fill="#BECCDA" fill-rule="nonzero"></path>
            </g>
        </g>
    </g>
</svg>