<?xml version="1.0" encoding="UTF-8"?>
<svg width="14px" height="17px" viewBox="0 0 14 17" version="1.1" xmlns="http://www.w3.org/2000/svg" xmlns:xlink="http://www.w3.org/1999/xlink">
    <title>编组 2</title>
    <g id="页面-1" stroke="none" stroke-width="1" fill="none" fill-rule="evenodd">
        <g id="无国家索引的方案备份" transform="translate(-23.000000, -338.000000)" fill="#BECCDA">
            <g id="编组-2" transform="translate(23.000000, 338.000000)">
                <path d="M3.55555556,12.4186886 L3.55555556,12.4877894 C3.55555556,14.4514685 1.96367911,16.043345 0,16.043345 L0,16.043345 L0,16.043345 L0,10.2438947 L0,8.79403214 C0.381846915,9.54677118 0.892082671,10.2486587 1.53070727,10.8996947 C2.16933187,11.5507308 2.8442813,12.057062 3.55555556,12.4186886 Z" id="形状结合备份-38"></path>
                <path d="M13.3333333,5.5329085 C13.3333333,9.3500444 10.348565,12.4444444 6.66666667,12.4444444 C2.98476833,12.4444444 0,9.3500444 0,5.5329085 C0,5.45831871 0.00113970925,4.51846459 0.00340205857,4.44444444 L3.56260048,4.44457006 C3.55790386,5.12021829 3.55555556,5.48299777 3.55555556,5.5329085 C3.55555556,7.37990974 4.88510296,8.87720008 6.66666667,8.87720008 C8.44823038,8.87720008 9.77777778,7.37990974 9.77777778,5.5329085 C9.77777778,5.45804241 9.7754049,4.51821058 9.77073285,4.44457006 L13.3299313,4.44444444 C13.3321936,4.51846459 13.3333333,5.45831871 13.3333333,5.5329085 Z" id="路径备份-21"></path>
                <rect id="矩形" x="3.55555556" y="0" width="2.31111111" height="3.55555556" rx="1.15555556"></rect>
                <path d="M8.6226774,0 C9.26087311,-1.1723465e-16 9.77823295,0.517359845 9.77823295,1.15555556 L9.77823295,2.4 C9.77823295,3.03819571 9.26087311,3.55555556 8.6226774,3.55555556 C7.98448169,3.55555556 7.46712184,3.03819571 7.46712184,2.4 L7.46712184,1.15555556 C7.46712184,0.517359845 7.98448169,1.1723465e-16 8.6226774,0 Z" id="矩形备份"></path>
            </g>
        </g>
    </g>
</svg>