<?xml version="1.0" encoding="UTF-8"?>
<svg width="16px" height="16px" viewBox="0 0 16 16" version="1.1" xmlns="http://www.w3.org/2000/svg" xmlns:xlink="http://www.w3.org/1999/xlink">
    <title>settings-3-fill</title>
    <g id="页面-1" stroke="none" stroke-width="1" fill="none" fill-rule="evenodd">
        <g id="无国家索引的方案备份" transform="translate(-20.000000, -1184.000000)">
            <g id="settings-3-fill" transform="translate(20.000000, 1184.000000)">
                <polygon id="路径" points="0 0 16 0 16 16 0 16"></polygon>
                <path d="M6.636,1.47333333 C7.53528549,1.28475579 8.46386389,1.28430183 9.36333333,1.472 C9.48471302,2.2732277 9.96445108,2.97553477 10.6666667,3.38 C11.3683291,3.78586539 12.2166871,3.84991556 12.9713333,3.554 C13.5835222,4.23937374 14.0472467,5.04402536 14.3333333,5.91733333 C13.7004201,6.42319466 13.3323465,7.18976929 13.3333333,8 C13.3333333,8.84266667 13.724,9.594 14.3346667,10.0826667 C14.0468877,10.9552518 13.5825881,11.7592662 12.9706667,12.4446667 C12.216214,12.1489665 11.3681525,12.2130128 10.6666667,12.6186667 C9.96503845,13.0229998 9.48561,13.7247221 9.364,14.5253333 C8.46480649,14.7143506 7.53622808,14.7152586 6.63666667,14.528 C6.51585806,13.7260357 6.03604809,13.022887 5.33333333,12.618 C4.6315668,12.2123535 3.78321268,12.1485491 3.02866667,12.4446667 C2.41639861,11.7590971 1.95266993,10.9542112 1.66666667,10.0806667 C2.29921411,9.57509702 2.66724761,8.80909663 2.66666667,7.99933333 C2.66732976,7.18887751 2.29874609,6.42226272 1.66533333,5.91666667 C1.95311231,5.04408149 2.41741189,4.24006712 3.02933333,3.55466667 C3.78378604,3.8503668 4.63184746,3.78632049 5.33333333,3.38066667 C6.03496155,2.97633357 6.51439,2.27461127 6.636,1.474 L6.636,1.47333333 Z M8,10 C9.1045695,10 10,9.1045695 10,8 C10,6.8954305 9.1045695,6 8,6 C6.8954305,6 6,6.8954305 6,8 C6,9.1045695 6.8954305,10 8,10 Z" id="形状" fill="#BECCDA" fill-rule="nonzero"></path>
            </g>
        </g>
    </g>
</svg>