<?xml version="1.0" encoding="UTF-8"?>
<svg width="16px" height="16px" viewBox="0 0 16 16" version="1.1" xmlns="http://www.w3.org/2000/svg" xmlns:xlink="http://www.w3.org/1999/xlink">
    <title>survey-fill</title>
    <g id="页面-1" stroke="none" stroke-width="1" fill="none" fill-rule="evenodd">
        <g id="无国家索引的方案备份" transform="translate(-21.000000, -114.000000)">
            <g id="survey-fill" transform="translate(21.000000, 114.000000)">
                <polygon id="路径" points="0 0 16 0 16 16 0 16"></polygon>
                <path d="M4,2.66666667 L4,5.33333333 L12,5.33333333 L12,2.66666667 L13.338,2.66666667 C13.7033333,2.66666667 14,2.96333333 14,3.32866667 L14,14.0046667 C14,14.37 13.7033333,14.6666667 13.338,14.6666667 L2.662,14.6666667 C2.29666667,14.6666667 2,14.37 2,14.0046667 L2,3.32866667 C2,2.96333333 2.29666667,2.66666667 2.662,2.66666667 L4,2.66666667 Z M6,11.3333333 L4.66666667,11.3333333 L4.66666667,12.6666667 L6,12.6666667 L6,11.3333333 Z M6,9.33333333 L4.66666667,9.33333333 L4.66666667,10.6666667 L6,10.6666667 L6,9.33333333 Z M6,7.33333333 L4.66666667,7.33333333 L4.66666667,8.66666667 L6,8.66666667 L6,7.33333333 Z M10.6666667,1.33333333 L10.6666667,4 L5.33333333,4 L5.33333333,1.33333333 L10.6666667,1.33333333 Z" id="形状" fill="#BECCDA" fill-rule="nonzero"></path>
            </g>
        </g>
    </g>
</svg>